<svg width="375" height="812" viewBox="0 0 375 812" fill="none" xmlns="http://www.w3.org/2000/svg">
<g clip-path="url(#clip0_60_12485)">
<rect width="375" height="812" fill="white"/>
<g filter="url(#filter0_d_60_12485)">
<path d="M0 730C0 718.954 8.95431 710 20 710H355C366.046 710 375 718.954 375 730V777C375 796.33 359.33 812 340 812H35C15.67 812 0 796.33 0 777V730Z" fill="white"/>
</g>
<rect x="16" y="726" width="343" height="70" rx="15" fill="#F3F4F5"/>
<g clip-path="url(#clip1_60_12485)">
<rect opacity="0.01" x="271" y="726" width="82" height="70" fill="white"/>
<path d="M300.817 771.084C300.817 771.78 300.577 772.36 300.097 772.824C299.625 773.28 298.901 773.508 297.925 773.508H296.317V777H295.225V768.636H297.925C298.869 768.636 299.585 768.864 300.073 769.32C300.569 769.776 300.817 770.364 300.817 771.084ZM297.925 772.608C298.533 772.608 298.981 772.476 299.269 772.212C299.557 771.948 299.701 771.572 299.701 771.084C299.701 770.052 299.109 769.536 297.925 769.536H296.317V772.608H297.925ZM303.266 771.492C303.458 771.116 303.73 770.824 304.082 770.616C304.442 770.408 304.878 770.304 305.39 770.304V771.432H305.102C303.878 771.432 303.266 772.096 303.266 773.424V777H302.174V770.424H303.266V771.492ZM309.519 777.108C308.903 777.108 308.343 776.968 307.839 776.688C307.343 776.408 306.951 776.012 306.663 775.5C306.383 774.98 306.243 774.38 306.243 773.7C306.243 773.028 306.387 772.436 306.675 771.924C306.971 771.404 307.371 771.008 307.875 770.736C308.379 770.456 308.943 770.316 309.567 770.316C310.191 770.316 310.755 770.456 311.259 770.736C311.763 771.008 312.159 771.4 312.447 771.912C312.743 772.424 312.891 773.02 312.891 773.7C312.891 774.38 312.739 774.98 312.435 775.5C312.139 776.012 311.735 776.408 311.223 776.688C310.711 776.968 310.143 777.108 309.519 777.108ZM309.519 776.148C309.911 776.148 310.279 776.056 310.623 775.872C310.967 775.688 311.243 775.412 311.451 775.044C311.667 774.676 311.775 774.228 311.775 773.7C311.775 773.172 311.671 772.724 311.463 772.356C311.255 771.988 310.983 771.716 310.647 771.54C310.311 771.356 309.947 771.264 309.555 771.264C309.155 771.264 308.787 771.356 308.451 771.54C308.123 771.716 307.859 771.988 307.659 772.356C307.459 772.724 307.359 773.172 307.359 773.7C307.359 774.236 307.455 774.688 307.647 775.056C307.847 775.424 308.111 775.7 308.439 775.884C308.767 776.06 309.127 776.148 309.519 776.148ZM317.002 771.324H315.622V777H314.53V771.324H313.678V770.424H314.53V769.956C314.53 769.22 314.718 768.684 315.094 768.348C315.478 768.004 316.09 767.832 316.93 767.832V768.744C316.45 768.744 316.11 768.84 315.91 769.032C315.718 769.216 315.622 769.524 315.622 769.956V770.424H317.002V771.324ZM318.84 769.356C318.632 769.356 318.456 769.284 318.312 769.14C318.168 768.996 318.096 768.82 318.096 768.612C318.096 768.404 318.168 768.228 318.312 768.084C318.456 767.94 318.632 767.868 318.84 767.868C319.04 767.868 319.208 767.94 319.344 768.084C319.488 768.228 319.56 768.404 319.56 768.612C319.56 768.82 319.488 768.996 319.344 769.14C319.208 769.284 319.04 769.356 318.84 769.356ZM319.368 770.424V777H318.276V770.424H319.368ZM322.321 768.12V777H321.229V768.12H322.321ZM330.182 773.46C330.182 773.668 330.17 773.888 330.146 774.12H324.89C324.93 774.768 325.15 775.276 325.55 775.644C325.958 776.004 326.45 776.184 327.026 776.184C327.498 776.184 327.89 776.076 328.202 775.86C328.522 775.636 328.746 775.34 328.874 774.972H330.05C329.874 775.604 329.522 776.12 328.994 776.52C328.466 776.912 327.81 777.108 327.026 777.108C326.402 777.108 325.842 776.968 325.346 776.688C324.858 776.408 324.474 776.012 324.194 775.5C323.914 774.98 323.774 774.38 323.774 773.7C323.774 773.02 323.91 772.424 324.182 771.912C324.454 771.4 324.834 771.008 325.322 770.736C325.818 770.456 326.386 770.316 327.026 770.316C327.65 770.316 328.202 770.452 328.682 770.724C329.162 770.996 329.53 771.372 329.786 771.852C330.05 772.324 330.182 772.86 330.182 773.46ZM329.054 773.232C329.054 772.816 328.962 772.46 328.778 772.164C328.594 771.86 328.342 771.632 328.022 771.48C327.71 771.32 327.362 771.24 326.978 771.24C326.426 771.24 325.954 771.416 325.562 771.768C325.178 772.12 324.958 772.608 324.902 773.232H329.054Z" fill="#00B0B3"/>
<rect opacity="0.01" x="302" y="738" width="20" height="20" fill="white"/>
<path d="M305 756C305 747 320 747 320 756" stroke="#00B0B3" stroke-width="1.5" stroke-linecap="round"/>
<circle cx="312.534" cy="744.375" r="3.375" stroke="#00B0B3" stroke-width="1.5"/>
</g>
<g clip-path="url(#clip2_60_12485)">
<rect opacity="0.01" x="147" y="726" width="82" height="70" fill="white"/>
<path opacity="0.3" d="M155.388 768.636V769.524H153.108V777H152.016V769.524H149.724V768.636H155.388ZM157.825 771.492C158.017 771.116 158.289 770.824 158.641 770.616C159.001 770.408 159.437 770.304 159.949 770.304V771.432H159.661C158.437 771.432 157.825 772.096 157.825 773.424V777H156.733V770.424H157.825V771.492ZM160.801 773.688C160.801 773.016 160.937 772.428 161.209 771.924C161.481 771.412 161.853 771.016 162.325 770.736C162.805 770.456 163.337 770.316 163.921 770.316C164.497 770.316 164.997 770.44 165.421 770.688C165.845 770.936 166.161 771.248 166.369 771.624V770.424H167.473V777H166.369V775.776C166.153 776.16 165.829 776.48 165.397 776.736C164.973 776.984 164.477 777.108 163.909 777.108C163.325 777.108 162.797 776.964 162.325 776.676C161.853 776.388 161.481 775.984 161.209 775.464C160.937 774.944 160.801 774.352 160.801 773.688ZM166.369 773.7C166.369 773.204 166.269 772.772 166.069 772.404C165.869 772.036 165.597 771.756 165.253 771.564C164.917 771.364 164.545 771.264 164.137 771.264C163.729 771.264 163.357 771.36 163.021 771.552C162.685 771.744 162.417 772.024 162.217 772.392C162.017 772.76 161.917 773.192 161.917 773.688C161.917 774.192 162.017 774.632 162.217 775.008C162.417 775.376 162.685 775.66 163.021 775.86C163.357 776.052 163.729 776.148 164.137 776.148C164.545 776.148 164.917 776.052 165.253 775.86C165.597 775.66 165.869 775.376 166.069 775.008C166.269 774.632 166.369 774.196 166.369 773.7ZM172.523 770.304C173.323 770.304 173.971 770.548 174.467 771.036C174.963 771.516 175.211 772.212 175.211 773.124V777H174.131V773.28C174.131 772.624 173.967 772.124 173.639 771.78C173.311 771.428 172.863 771.252 172.295 771.252C171.719 771.252 171.259 771.432 170.915 771.792C170.579 772.152 170.411 772.676 170.411 773.364V777H169.319V770.424H170.411V771.36C170.627 771.024 170.919 770.764 171.287 770.58C171.663 770.396 172.075 770.304 172.523 770.304ZM179.322 777.108C178.818 777.108 178.366 777.024 177.966 776.856C177.566 776.68 177.25 776.44 177.018 776.136C176.786 775.824 176.658 775.468 176.634 775.068H177.762C177.794 775.396 177.946 775.664 178.218 775.872C178.498 776.08 178.862 776.184 179.31 776.184C179.726 776.184 180.054 776.092 180.294 775.908C180.534 775.724 180.654 775.492 180.654 775.212C180.654 774.924 180.526 774.712 180.27 774.576C180.014 774.432 179.618 774.292 179.082 774.156C178.594 774.028 178.194 773.9 177.882 773.772C177.578 773.636 177.314 773.44 177.09 773.184C176.874 772.92 176.766 772.576 176.766 772.152C176.766 771.816 176.866 771.508 177.066 771.228C177.266 770.948 177.55 770.728 177.918 770.568C178.286 770.4 178.706 770.316 179.178 770.316C179.906 770.316 180.494 770.5 180.942 770.868C181.39 771.236 181.63 771.74 181.662 772.38H180.57C180.546 772.036 180.406 771.76 180.15 771.552C179.902 771.344 179.566 771.24 179.142 771.24C178.75 771.24 178.438 771.324 178.206 771.492C177.974 771.66 177.858 771.88 177.858 772.152C177.858 772.368 177.926 772.548 178.062 772.692C178.206 772.828 178.382 772.94 178.59 773.028C178.806 773.108 179.102 773.2 179.478 773.304C179.95 773.432 180.334 773.56 180.63 773.688C180.926 773.808 181.178 773.992 181.386 774.24C181.602 774.488 181.714 774.812 181.722 775.212C181.722 775.572 181.622 775.896 181.422 776.184C181.222 776.472 180.938 776.7 180.57 776.868C180.21 777.028 179.794 777.108 179.322 777.108ZM182.856 773.688C182.856 773.016 182.992 772.428 183.264 771.924C183.536 771.412 183.908 771.016 184.38 770.736C184.86 770.456 185.392 770.316 185.976 770.316C186.552 770.316 187.052 770.44 187.476 770.688C187.9 770.936 188.216 771.248 188.424 771.624V770.424H189.528V777H188.424V775.776C188.208 776.16 187.884 776.48 187.452 776.736C187.028 776.984 186.532 777.108 185.964 777.108C185.38 777.108 184.852 776.964 184.38 776.676C183.908 776.388 183.536 775.984 183.264 775.464C182.992 774.944 182.856 774.352 182.856 773.688ZM188.424 773.7C188.424 773.204 188.324 772.772 188.124 772.404C187.924 772.036 187.652 771.756 187.308 771.564C186.972 771.364 186.6 771.264 186.192 771.264C185.784 771.264 185.412 771.36 185.076 771.552C184.74 771.744 184.472 772.024 184.272 772.392C184.072 772.76 183.972 773.192 183.972 773.688C183.972 774.192 184.072 774.632 184.272 775.008C184.472 775.376 184.74 775.66 185.076 775.86C185.412 776.052 185.784 776.148 186.192 776.148C186.6 776.148 186.972 776.052 187.308 775.86C187.652 775.66 187.924 775.376 188.124 775.008C188.324 774.632 188.424 774.196 188.424 773.7ZM190.965 773.7C190.965 773.02 191.101 772.428 191.373 771.924C191.645 771.412 192.021 771.016 192.501 770.736C192.989 770.456 193.545 770.316 194.169 770.316C194.977 770.316 195.641 770.512 196.161 770.904C196.689 771.296 197.037 771.84 197.205 772.536H196.029C195.917 772.136 195.697 771.82 195.369 771.588C195.049 771.356 194.649 771.24 194.169 771.24C193.545 771.24 193.041 771.456 192.657 771.888C192.273 772.312 192.081 772.916 192.081 773.7C192.081 774.492 192.273 775.104 192.657 775.536C193.041 775.968 193.545 776.184 194.169 776.184C194.649 776.184 195.049 776.072 195.369 775.848C195.689 775.624 195.909 775.304 196.029 774.888H197.205C197.029 775.56 196.677 776.1 196.149 776.508C195.621 776.908 194.961 777.108 194.169 777.108C193.545 777.108 192.989 776.968 192.501 776.688C192.021 776.408 191.645 776.012 191.373 775.5C191.101 774.988 190.965 774.388 190.965 773.7ZM199.994 771.324V775.2C199.994 775.52 200.062 775.748 200.198 775.884C200.334 776.012 200.57 776.076 200.906 776.076H201.71V777H200.726C200.118 777 199.662 776.86 199.358 776.58C199.054 776.3 198.902 775.84 198.902 775.2V771.324H198.05V770.424H198.902V768.768H199.994V770.424H201.71V771.324H199.994ZM203.597 769.356C203.389 769.356 203.213 769.284 203.069 769.14C202.925 768.996 202.853 768.82 202.853 768.612C202.853 768.404 202.925 768.228 203.069 768.084C203.213 767.94 203.389 767.868 203.597 767.868C203.797 767.868 203.965 767.94 204.101 768.084C204.245 768.228 204.317 768.404 204.317 768.612C204.317 768.82 204.245 768.996 204.101 769.14C203.965 769.284 203.797 769.356 203.597 769.356ZM204.125 770.424V777H203.033V770.424H204.125ZM208.855 777.108C208.239 777.108 207.679 776.968 207.175 776.688C206.679 776.408 206.287 776.012 205.999 775.5C205.719 774.98 205.579 774.38 205.579 773.7C205.579 773.028 205.723 772.436 206.011 771.924C206.307 771.404 206.707 771.008 207.211 770.736C207.715 770.456 208.279 770.316 208.903 770.316C209.527 770.316 210.091 770.456 210.595 770.736C211.099 771.008 211.495 771.4 211.783 771.912C212.079 772.424 212.227 773.02 212.227 773.7C212.227 774.38 212.075 774.98 211.771 775.5C211.475 776.012 211.071 776.408 210.559 776.688C210.047 776.968 209.479 777.108 208.855 777.108ZM208.855 776.148C209.247 776.148 209.615 776.056 209.959 775.872C210.303 775.688 210.579 775.412 210.787 775.044C211.003 774.676 211.111 774.228 211.111 773.7C211.111 773.172 211.007 772.724 210.799 772.356C210.591 771.988 210.319 771.716 209.983 771.54C209.647 771.356 209.283 771.264 208.891 771.264C208.491 771.264 208.123 771.356 207.787 771.54C207.459 771.716 207.195 771.988 206.995 772.356C206.795 772.724 206.695 773.172 206.695 773.7C206.695 774.236 206.791 774.688 206.983 775.056C207.183 775.424 207.447 775.7 207.775 775.884C208.103 776.06 208.463 776.148 208.855 776.148ZM216.866 770.304C217.666 770.304 218.314 770.548 218.81 771.036C219.306 771.516 219.554 772.212 219.554 773.124V777H218.474V773.28C218.474 772.624 218.31 772.124 217.982 771.78C217.654 771.428 217.206 771.252 216.638 771.252C216.062 771.252 215.602 771.432 215.258 771.792C214.922 772.152 214.754 772.676 214.754 773.364V777H213.662V770.424H214.754V771.36C214.97 771.024 215.262 770.764 215.63 770.58C216.006 770.396 216.418 770.304 216.866 770.304ZM223.666 777.108C223.162 777.108 222.71 777.024 222.31 776.856C221.91 776.68 221.594 776.44 221.362 776.136C221.13 775.824 221.002 775.468 220.978 775.068H222.106C222.138 775.396 222.29 775.664 222.562 775.872C222.842 776.08 223.206 776.184 223.654 776.184C224.07 776.184 224.398 776.092 224.638 775.908C224.878 775.724 224.998 775.492 224.998 775.212C224.998 774.924 224.87 774.712 224.614 774.576C224.358 774.432 223.962 774.292 223.426 774.156C222.938 774.028 222.538 773.9 222.226 773.772C221.922 773.636 221.658 773.44 221.434 773.184C221.218 772.92 221.11 772.576 221.11 772.152C221.11 771.816 221.21 771.508 221.41 771.228C221.61 770.948 221.894 770.728 222.262 770.568C222.63 770.4 223.05 770.316 223.522 770.316C224.25 770.316 224.838 770.5 225.286 770.868C225.734 771.236 225.974 771.74 226.006 772.38H224.914C224.89 772.036 224.75 771.76 224.494 771.552C224.246 771.344 223.91 771.24 223.486 771.24C223.094 771.24 222.782 771.324 222.55 771.492C222.318 771.66 222.202 771.88 222.202 772.152C222.202 772.368 222.27 772.548 222.406 772.692C222.55 772.828 222.726 772.94 222.934 773.028C223.15 773.108 223.446 773.2 223.822 773.304C224.294 773.432 224.678 773.56 224.974 773.688C225.27 773.808 225.522 773.992 225.73 774.24C225.946 774.488 226.058 774.812 226.066 775.212C226.066 775.572 225.966 775.896 225.766 776.184C225.566 776.472 225.282 776.7 224.914 776.868C224.554 777.028 224.138 777.108 223.666 777.108Z" fill="#1A1A1A"/>
<g opacity="0.3">
<rect opacity="0.01" x="198" y="738" width="20" height="20" transform="rotate(90 198 738)" fill="white"/>
<path fill-rule="evenodd" clip-rule="evenodd" d="M188 743.495C188 743.763 188.159 744.005 188.402 744.108C188.645 744.21 188.925 744.153 189.111 743.964L190.82 742.222V752.337C190.82 752.703 191.111 753 191.471 753C191.83 753 192.122 752.703 192.122 752.337V742.076L193.814 743.942C193.958 744.154 194.209 744.262 194.459 744.219C194.709 744.175 194.911 743.988 194.977 743.739C195.044 743.49 194.962 743.224 194.768 743.058L192.165 740.184C191.818 739.939 191.358 739.939 191.011 740.184L188.191 743.058C188.076 743.174 188.008 743.33 188 743.495Z" fill="black"/>
<path fill-rule="evenodd" clip-rule="evenodd" d="M184.397 753.987C184.604 754.028 184.819 753.969 184.972 753.83L187.787 751.247C187.962 751.095 188.037 750.864 187.982 750.644C187.928 750.424 187.752 750.25 187.524 750.19C187.296 750.13 187.052 750.192 186.886 750.354L185.154 751.929V742.62C185.154 742.278 184.864 742 184.505 742C184.146 742 183.855 742.278 183.855 742.62V752.007L182.184 750.267C182.04 750.068 181.789 749.967 181.54 750.008C181.291 750.049 181.089 750.224 181.023 750.457C180.956 750.69 181.038 750.938 181.231 751.094L183.829 753.78C183.97 753.937 184.183 754.014 184.397 753.987Z" fill="black"/>
</g>
</g>
<g clip-path="url(#clip3_60_12485)">
<rect opacity="0.01" x="22" y="726" width="82" height="70" fill="white"/>
<path opacity="0.297067" d="M52.4735 768.636V777H51.3815V773.208H47.1215V777H46.0295V768.636H47.1215V772.308H51.3815V768.636H52.4735ZM57.2061 777.108C56.5901 777.108 56.0301 776.968 55.5261 776.688C55.0301 776.408 54.6381 776.012 54.3501 775.5C54.0701 774.98 53.9301 774.38 53.9301 773.7C53.9301 773.028 54.0741 772.436 54.3621 771.924C54.6581 771.404 55.0581 771.008 55.5621 770.736C56.0661 770.456 56.6301 770.316 57.2541 770.316C57.8781 770.316 58.4421 770.456 58.9461 770.736C59.4501 771.008 59.8461 771.4 60.1341 771.912C60.4301 772.424 60.5781 773.02 60.5781 773.7C60.5781 774.38 60.4261 774.98 60.1221 775.5C59.8261 776.012 59.4221 776.408 58.9101 776.688C58.3981 776.968 57.8301 777.108 57.2061 777.108ZM57.2061 776.148C57.5981 776.148 57.9661 776.056 58.3101 775.872C58.6541 775.688 58.9301 775.412 59.1381 775.044C59.3541 774.676 59.4621 774.228 59.4621 773.7C59.4621 773.172 59.3581 772.724 59.1501 772.356C58.9421 771.988 58.6701 771.716 58.3341 771.54C57.9981 771.356 57.6341 771.264 57.2421 771.264C56.8421 771.264 56.4741 771.356 56.1381 771.54C55.8101 771.716 55.5461 771.988 55.3461 772.356C55.1461 772.724 55.0461 773.172 55.0461 773.7C55.0461 774.236 55.1421 774.688 55.3341 775.056C55.5341 775.424 55.7981 775.7 56.1261 775.884C56.4541 776.06 56.8141 776.148 57.2061 776.148ZM69.9218 770.304C70.4338 770.304 70.8898 770.412 71.2898 770.628C71.6898 770.836 72.0058 771.152 72.2378 771.576C72.4698 772 72.5858 772.516 72.5858 773.124V777H71.5058V773.28C71.5058 772.624 71.3418 772.124 71.0138 771.78C70.6938 771.428 70.2578 771.252 69.7058 771.252C69.1378 771.252 68.6858 771.436 68.3498 771.804C68.0138 772.164 67.8458 772.688 67.8458 773.376V777H66.7658V773.28C66.7658 772.624 66.6018 772.124 66.2738 771.78C65.9538 771.428 65.5178 771.252 64.9658 771.252C64.3978 771.252 63.9458 771.436 63.6098 771.804C63.2738 772.164 63.1058 772.688 63.1058 773.376V777H62.0138V770.424H63.1058V771.372C63.3218 771.028 63.6098 770.764 63.9698 770.58C64.3378 770.396 64.7418 770.304 65.1818 770.304C65.7338 770.304 66.2218 770.428 66.6458 770.676C67.0698 770.924 67.3858 771.288 67.5938 771.768C67.7778 771.304 68.0818 770.944 68.5058 770.688C68.9298 770.432 69.4018 770.304 69.9218 770.304ZM80.3771 773.46C80.3771 773.668 80.3651 773.888 80.3411 774.12H75.0851C75.1251 774.768 75.3451 775.276 75.7451 775.644C76.1531 776.004 76.6451 776.184 77.2211 776.184C77.6931 776.184 78.0851 776.076 78.3971 775.86C78.7171 775.636 78.9411 775.34 79.0691 774.972H80.2451C80.0691 775.604 79.7171 776.12 79.1891 776.52C78.6611 776.912 78.0051 777.108 77.2211 777.108C76.5971 777.108 76.0371 776.968 75.5411 776.688C75.0531 776.408 74.6691 776.012 74.3891 775.5C74.1091 774.98 73.9691 774.38 73.9691 773.7C73.9691 773.02 74.1051 772.424 74.3771 771.912C74.6491 771.4 75.0291 771.008 75.5171 770.736C76.0131 770.456 76.5811 770.316 77.2211 770.316C77.8451 770.316 78.3971 770.452 78.8771 770.724C79.3571 770.996 79.7251 771.372 79.9811 771.852C80.2451 772.324 80.3771 772.86 80.3771 773.46ZM79.2491 773.232C79.2491 772.816 79.1571 772.46 78.9731 772.164C78.7891 771.86 78.5371 771.632 78.2171 771.48C77.9051 771.32 77.5571 771.24 77.1731 771.24C76.6211 771.24 76.1491 771.416 75.7571 771.768C75.3731 772.12 75.1531 772.608 75.0971 773.232H79.2491Z" fill="#1A1A1A"/>
<g opacity="0.300874">
<rect opacity="0.01" x="53" y="738" width="20" height="20" fill="white"/>
<path d="M55 745.802L62.8571 741L70.7143 745.802" stroke="black" stroke-width="2" stroke-linecap="round" stroke-linejoin="round"/>
<path d="M56.9644 744.521V753.976C56.9644 754.765 57.6039 755.405 58.3929 755.405H67.3215C68.1105 755.405 68.7501 754.765 68.7501 753.976V744.521" stroke="black" stroke-width="2"/>
</g>
</g>
<rect x="15" y="470" width="345" height="64" rx="15" fill="#F3F4F5"/>
<g opacity="0.01">
<rect x="320" y="490" width="24" height="24" fill="#F7F9FC"/>
</g>
<path d="M329.22 506.22C328.927 506.513 328.927 506.987 329.22 507.28C329.513 507.573 329.987 507.573 330.28 507.28L335.28 502.28C335.573 501.987 335.573 501.513 335.28 501.22L330.28 496.22C329.987 495.927 329.513 495.927 329.22 496.22C328.927 496.513 328.927 496.987 329.22 497.28L333.689 501.75L329.22 506.22Z" fill="black"/>
<path d="M79.82 497.27V507H78.224V502.744H73.646V507H72.05V497.27H73.646V501.442H78.224V497.27H79.82ZM88.9911 502.954C88.9911 503.243 88.9724 503.505 88.9351 503.738H83.0411C83.0878 504.354 83.3164 504.849 83.7271 505.222C84.1378 505.595 84.6418 505.782 85.2391 505.782C86.0978 505.782 86.7044 505.423 87.0591 504.704H88.7811C88.5478 505.413 88.1231 505.997 87.5071 506.454C86.9004 506.902 86.1444 507.126 85.2391 507.126C84.5018 507.126 83.8391 506.963 83.2511 506.636C82.6724 506.3 82.2151 505.833 81.8791 505.236C81.5524 504.629 81.3891 503.929 81.3891 503.136C81.3891 502.343 81.5478 501.647 81.8651 501.05C82.1918 500.443 82.6444 499.977 83.2231 499.65C83.8111 499.323 84.4831 499.16 85.2391 499.16C85.9671 499.16 86.6158 499.319 87.1851 499.636C87.7544 499.953 88.1978 500.401 88.5151 500.98C88.8324 501.549 88.9911 502.207 88.9911 502.954ZM87.3251 502.45C87.3158 501.862 87.1058 501.391 86.6951 501.036C86.2844 500.681 85.7758 500.504 85.1691 500.504C84.6184 500.504 84.1471 500.681 83.7551 501.036C83.3631 501.381 83.1298 501.853 83.0551 502.45H87.3251ZM92.1577 496.64V507H90.5617V496.64H92.1577ZM95.8491 500.42C96.1198 500.065 96.4885 499.767 96.9551 499.524C97.4218 499.281 97.9491 499.16 98.5371 499.16C99.2091 499.16 99.8205 499.328 100.371 499.664C100.931 499.991 101.37 500.453 101.687 501.05C102.004 501.647 102.163 502.333 102.163 503.108C102.163 503.883 102.004 504.578 101.687 505.194C101.37 505.801 100.931 506.277 100.371 506.622C99.8205 506.958 99.2091 507.126 98.5371 507.126C97.9491 507.126 97.4265 507.009 96.9691 506.776C96.5118 506.533 96.1385 506.235 95.8491 505.88V510.668H94.2531V499.286H95.8491V500.42ZM100.539 503.108C100.539 502.576 100.427 502.119 100.203 501.736C99.9885 501.344 99.6991 501.05 99.3351 500.854C98.9805 500.649 98.5978 500.546 98.1871 500.546C97.7858 500.546 97.4031 500.649 97.0391 500.854C96.6845 501.059 96.3951 501.358 96.1711 501.75C95.9565 502.142 95.8491 502.604 95.8491 503.136C95.8491 503.668 95.9565 504.135 96.1711 504.536C96.3951 504.928 96.6845 505.227 97.0391 505.432C97.4031 505.637 97.7858 505.74 98.1871 505.74C98.5978 505.74 98.9805 505.637 99.3351 505.432C99.6991 505.217 99.9885 504.909 100.203 504.508C100.427 504.107 100.539 503.64 100.539 503.108ZM106.846 502.114C106.846 501.162 107.065 500.308 107.504 499.552C107.952 498.796 108.554 498.208 109.31 497.788C110.075 497.359 110.911 497.144 111.816 497.144C112.852 497.144 113.771 497.401 114.574 497.914C115.386 498.418 115.974 499.137 116.338 500.07H114.42C114.168 499.557 113.818 499.174 113.37 498.922C112.922 498.67 112.404 498.544 111.816 498.544C111.172 498.544 110.598 498.689 110.094 498.978C109.59 499.267 109.193 499.683 108.904 500.224C108.624 500.765 108.484 501.395 108.484 502.114C108.484 502.833 108.624 503.463 108.904 504.004C109.193 504.545 109.59 504.965 110.094 505.264C110.598 505.553 111.172 505.698 111.816 505.698C112.404 505.698 112.922 505.572 113.37 505.32C113.818 505.068 114.168 504.685 114.42 504.172H116.338C115.974 505.105 115.386 505.824 114.574 506.328C113.771 506.832 112.852 507.084 111.816 507.084C110.901 507.084 110.066 506.874 109.31 506.454C108.554 506.025 107.952 505.432 107.504 504.676C107.065 503.92 106.846 503.066 106.846 502.114ZM125.276 502.954C125.276 503.243 125.258 503.505 125.22 503.738H119.326C119.373 504.354 119.602 504.849 120.012 505.222C120.423 505.595 120.927 505.782 121.524 505.782C122.383 505.782 122.99 505.423 123.344 504.704H125.066C124.833 505.413 124.408 505.997 123.792 506.454C123.186 506.902 122.43 507.126 121.524 507.126C120.787 507.126 120.124 506.963 119.536 506.636C118.958 506.3 118.5 505.833 118.164 505.236C117.838 504.629 117.674 503.929 117.674 503.136C117.674 502.343 117.833 501.647 118.15 501.05C118.477 500.443 118.93 499.977 119.508 499.65C120.096 499.323 120.768 499.16 121.524 499.16C122.252 499.16 122.901 499.319 123.47 499.636C124.04 499.953 124.483 500.401 124.8 500.98C125.118 501.549 125.276 502.207 125.276 502.954ZM123.61 502.45C123.601 501.862 123.391 501.391 122.98 501.036C122.57 500.681 122.061 500.504 121.454 500.504C120.904 500.504 120.432 500.681 120.04 501.036C119.648 501.381 119.415 501.853 119.34 502.45H123.61ZM130.739 499.16C131.346 499.16 131.887 499.286 132.363 499.538C132.848 499.79 133.226 500.163 133.497 500.658C133.768 501.153 133.903 501.75 133.903 502.45V507H132.321V502.688C132.321 501.997 132.148 501.47 131.803 501.106C131.458 500.733 130.986 500.546 130.389 500.546C129.792 500.546 129.316 500.733 128.961 501.106C128.616 501.47 128.443 501.997 128.443 502.688V507H126.847V499.286H128.443V500.168C128.704 499.851 129.036 499.603 129.437 499.426C129.848 499.249 130.282 499.16 130.739 499.16ZM137.801 500.588V504.858C137.801 505.147 137.866 505.357 137.997 505.488C138.137 505.609 138.37 505.67 138.697 505.67H139.677V507H138.417C137.698 507 137.147 506.832 136.765 506.496C136.382 506.16 136.191 505.614 136.191 504.858V500.588H135.281V499.286H136.191V497.368H137.801V499.286H139.677V500.588H137.801ZM148.218 502.954C148.218 503.243 148.199 503.505 148.162 503.738H142.268C142.314 504.354 142.543 504.849 142.954 505.222C143.364 505.595 143.868 505.782 144.466 505.782C145.324 505.782 145.931 505.423 146.286 504.704H148.008C147.774 505.413 147.35 505.997 146.734 506.454C146.127 506.902 145.371 507.126 144.466 507.126C143.728 507.126 143.066 506.963 142.478 506.636C141.899 506.3 141.442 505.833 141.106 505.236C140.779 504.629 140.616 503.929 140.616 503.136C140.616 502.343 140.774 501.647 141.092 501.05C141.418 500.443 141.871 499.977 142.45 499.65C143.038 499.323 143.71 499.16 144.466 499.16C145.194 499.16 145.842 499.319 146.412 499.636C146.981 499.953 147.424 500.401 147.742 500.98C148.059 501.549 148.218 502.207 148.218 502.954ZM146.552 502.45C146.542 501.862 146.332 501.391 145.922 501.036C145.511 500.681 145.002 500.504 144.396 500.504C143.845 500.504 143.374 500.681 142.982 501.036C142.59 501.381 142.356 501.853 142.282 502.45H146.552ZM151.384 500.406C151.618 500.014 151.926 499.711 152.308 499.496C152.7 499.272 153.162 499.16 153.694 499.16V500.812H153.288C152.663 500.812 152.187 500.971 151.86 501.288C151.543 501.605 151.384 502.156 151.384 502.94V507H149.788V499.286H151.384V500.406Z" fill="#1A1A1A"/>
<g opacity="0.01">
<rect x="31" y="490" width="24" height="24" fill="#F7F9FC"/>
</g>
<path fill-rule="evenodd" clip-rule="evenodd" d="M43.0418 494.629C38.9935 494.629 35.7124 497.91 35.7124 501.958C35.7124 503.364 36.1074 504.675 36.7923 505.79L37.013 506.149L35.6342 509.366L38.851 507.987L39.211 508.208C40.325 508.893 41.6362 509.288 43.0418 509.288C47.0901 509.288 50.3712 506.006 50.3712 501.958C50.3712 497.91 47.0901 494.629 43.0418 494.629ZM34.0836 501.958C34.0836 497.011 38.0945 493 43.0418 493C47.9892 493 52 497.011 52 501.958C52 506.906 47.9892 510.916 43.0418 510.916C41.4798 510.916 40.0091 510.516 38.7289 509.812L36.2759 510.863C34.9241 511.442 33.5575 510.076 34.1366 508.724L35.1879 506.271C34.4843 504.991 34.0836 503.52 34.0836 501.958ZM38.9699 500.329C38.9699 499.88 39.3348 499.515 39.7843 499.515H42.2274C42.677 499.515 43.0418 499.88 43.0418 500.329C43.0418 500.779 42.677 501.144 42.2274 501.144H39.7843C39.3348 501.144 38.9699 500.779 38.9699 500.329ZM38.9699 503.587C38.9699 503.137 39.3348 502.773 39.7843 502.773H46.2993C46.7489 502.773 47.1137 503.137 47.1137 503.587C47.1137 504.036 46.7489 504.401 46.2993 504.401H39.7843C39.3348 504.401 38.9699 504.036 38.9699 503.587Z" fill="black"/>
<rect x="15" y="386" width="345" height="64" rx="15" fill="#F3F4F5"/>
<g opacity="0.01">
<rect x="320" y="406" width="24" height="24" fill="#F7F9FC"/>
</g>
<path d="M329.22 422.22C328.927 422.513 328.927 422.987 329.22 423.28C329.513 423.573 329.987 423.573 330.28 423.28L335.28 418.28C335.573 417.987 335.573 417.513 335.28 417.22L330.28 412.22C329.987 411.927 329.513 411.927 329.22 412.22C328.927 412.513 328.927 412.987 329.22 413.28L333.689 417.75L329.22 422.22Z" fill="black"/>
<path d="M75.256 423.098C74.6027 423.098 74.0147 422.986 73.492 422.762C72.9693 422.529 72.5587 422.202 72.26 421.782C71.9613 421.362 71.812 420.872 71.812 420.312H73.52C73.5573 420.732 73.7207 421.077 74.01 421.348C74.3087 421.619 74.724 421.754 75.256 421.754C75.8067 421.754 76.236 421.623 76.544 421.362C76.852 421.091 77.006 420.746 77.006 420.326C77.006 419.999 76.908 419.733 76.712 419.528C76.5253 419.323 76.2873 419.164 75.998 419.052C75.718 418.94 75.326 418.819 74.822 418.688C74.1873 418.52 73.6693 418.352 73.268 418.184C72.876 418.007 72.54 417.736 72.26 417.372C71.98 417.008 71.84 416.523 71.84 415.916C71.84 415.356 71.98 414.866 72.26 414.446C72.54 414.026 72.932 413.704 73.436 413.48C73.94 413.256 74.5233 413.144 75.186 413.144C76.1287 413.144 76.8987 413.382 77.496 413.858C78.1027 414.325 78.4387 414.969 78.504 415.79H76.74C76.712 415.435 76.544 415.132 76.236 414.88C75.928 414.628 75.522 414.502 75.018 414.502C74.5607 414.502 74.1873 414.619 73.898 414.852C73.6087 415.085 73.464 415.421 73.464 415.86C73.464 416.159 73.5527 416.406 73.73 416.602C73.9167 416.789 74.15 416.938 74.43 417.05C74.71 417.162 75.0927 417.283 75.578 417.414C76.222 417.591 76.7447 417.769 77.146 417.946C77.5567 418.123 77.902 418.399 78.182 418.772C78.4713 419.136 78.616 419.626 78.616 420.242C78.616 420.737 78.4807 421.203 78.21 421.642C77.9487 422.081 77.5613 422.435 77.048 422.706C76.544 422.967 75.9467 423.098 75.256 423.098ZM87.5692 418.954C87.5692 419.243 87.5506 419.505 87.5132 419.738H81.6192C81.6659 420.354 81.8946 420.849 82.3052 421.222C82.7159 421.595 83.2199 421.782 83.8172 421.782C84.6759 421.782 85.2826 421.423 85.6372 420.704H87.3592C87.1259 421.413 86.7012 421.997 86.0852 422.454C85.4786 422.902 84.7226 423.126 83.8172 423.126C83.0799 423.126 82.4172 422.963 81.8292 422.636C81.2506 422.3 80.7932 421.833 80.4572 421.236C80.1306 420.629 79.9672 419.929 79.9672 419.136C79.9672 418.343 80.1259 417.647 80.4432 417.05C80.7699 416.443 81.2226 415.977 81.8012 415.65C82.3892 415.323 83.0612 415.16 83.8172 415.16C84.5452 415.16 85.1939 415.319 85.7632 415.636C86.3326 415.953 86.7759 416.401 87.0932 416.98C87.4106 417.549 87.5692 418.207 87.5692 418.954ZM85.9032 418.45C85.8939 417.862 85.6839 417.391 85.2732 417.036C84.8626 416.681 84.3539 416.504 83.7472 416.504C83.1966 416.504 82.7252 416.681 82.3332 417.036C81.9412 417.381 81.7079 417.853 81.6332 418.45H85.9032ZM91.0018 416.588V420.858C91.0018 421.147 91.0672 421.357 91.1978 421.488C91.3378 421.609 91.5712 421.67 91.8978 421.67H92.8778V423H91.6178C90.8992 423 90.3485 422.832 89.9658 422.496C89.5832 422.16 89.3918 421.614 89.3918 420.858V416.588H88.4818V415.286H89.3918V413.368H91.0018V415.286H92.8778V416.588H91.0018ZM96.2108 416.588V420.858C96.2108 421.147 96.2762 421.357 96.4068 421.488C96.5468 421.609 96.7802 421.67 97.1068 421.67H98.0868V423H96.8268C96.1082 423 95.5575 422.832 95.1748 422.496C94.7922 422.16 94.6008 421.614 94.6008 420.858V416.588H93.6908V415.286H94.6008V413.368H96.2108V415.286H98.0868V416.588H96.2108ZM100.37 414.264C100.08 414.264 99.8378 414.166 99.6418 413.97C99.4458 413.774 99.3478 413.531 99.3478 413.242C99.3478 412.953 99.4458 412.71 99.6418 412.514C99.8378 412.318 100.08 412.22 100.37 412.22C100.65 412.22 100.888 412.318 101.084 412.514C101.28 412.71 101.378 412.953 101.378 413.242C101.378 413.531 101.28 413.774 101.084 413.97C100.888 414.166 100.65 414.264 100.37 414.264ZM101.154 415.286V423H99.5578V415.286H101.154ZM107.141 415.16C107.748 415.16 108.289 415.286 108.765 415.538C109.251 415.79 109.629 416.163 109.899 416.658C110.17 417.153 110.305 417.75 110.305 418.45V423H108.723V418.688C108.723 417.997 108.551 417.47 108.205 417.106C107.86 416.733 107.389 416.546 106.791 416.546C106.194 416.546 105.718 416.733 105.363 417.106C105.018 417.47 104.845 417.997 104.845 418.688V423H103.249V415.286H104.845V416.168C105.107 415.851 105.438 415.603 105.839 415.426C106.25 415.249 106.684 415.16 107.141 415.16ZM115.449 415.16C116.046 415.16 116.574 415.281 117.031 415.524C117.498 415.757 117.862 416.051 118.123 416.406V415.286H119.733V423.126C119.733 423.835 119.584 424.465 119.285 425.016C118.986 425.576 118.552 426.015 117.983 426.332C117.423 426.649 116.751 426.808 115.967 426.808C114.922 426.808 114.054 426.561 113.363 426.066C112.672 425.581 112.28 424.918 112.187 424.078H113.769C113.89 424.479 114.147 424.801 114.539 425.044C114.94 425.296 115.416 425.422 115.967 425.422C116.611 425.422 117.129 425.226 117.521 424.834C117.922 424.442 118.123 423.873 118.123 423.126V421.838C117.852 422.202 117.484 422.51 117.017 422.762C116.56 423.005 116.037 423.126 115.449 423.126C114.777 423.126 114.161 422.958 113.601 422.622C113.05 422.277 112.612 421.801 112.285 421.194C111.968 420.578 111.809 419.883 111.809 419.108C111.809 418.333 111.968 417.647 112.285 417.05C112.612 416.453 113.05 415.991 113.601 415.664C114.161 415.328 114.777 415.16 115.449 415.16ZM118.123 419.136C118.123 418.604 118.011 418.142 117.787 417.75C117.572 417.358 117.288 417.059 116.933 416.854C116.578 416.649 116.196 416.546 115.785 416.546C115.374 416.546 114.992 416.649 114.637 416.854C114.282 417.05 113.993 417.344 113.769 417.736C113.554 418.119 113.447 418.576 113.447 419.108C113.447 419.64 113.554 420.107 113.769 420.508C113.993 420.909 114.282 421.217 114.637 421.432C115.001 421.637 115.384 421.74 115.785 421.74C116.196 421.74 116.578 421.637 116.933 421.432C117.288 421.227 117.572 420.928 117.787 420.536C118.011 420.135 118.123 419.668 118.123 419.136ZM124.629 423.126C124.023 423.126 123.477 423.019 122.991 422.804C122.515 422.58 122.137 422.281 121.857 421.908C121.577 421.525 121.428 421.101 121.409 420.634H123.061C123.089 420.961 123.243 421.236 123.523 421.46C123.813 421.675 124.172 421.782 124.601 421.782C125.049 421.782 125.395 421.698 125.637 421.53C125.889 421.353 126.015 421.129 126.015 420.858C126.015 420.569 125.875 420.354 125.595 420.214C125.325 420.074 124.891 419.92 124.293 419.752C123.715 419.593 123.243 419.439 122.879 419.29C122.515 419.141 122.198 418.912 121.927 418.604C121.666 418.296 121.535 417.89 121.535 417.386C121.535 416.975 121.657 416.602 121.899 416.266C122.142 415.921 122.487 415.65 122.935 415.454C123.393 415.258 123.915 415.16 124.503 415.16C125.381 415.16 126.085 415.384 126.617 415.832C127.159 416.271 127.448 416.873 127.485 417.638H125.889C125.861 417.293 125.721 417.017 125.469 416.812C125.217 416.607 124.877 416.504 124.447 416.504C124.027 416.504 123.705 416.583 123.481 416.742C123.257 416.901 123.145 417.111 123.145 417.372C123.145 417.577 123.22 417.75 123.369 417.89C123.519 418.03 123.701 418.142 123.915 418.226C124.13 418.301 124.447 418.399 124.867 418.52C125.427 418.669 125.885 418.823 126.239 418.982C126.603 419.131 126.916 419.355 127.177 419.654C127.439 419.953 127.574 420.349 127.583 420.844C127.583 421.283 127.462 421.675 127.219 422.02C126.977 422.365 126.631 422.636 126.183 422.832C125.745 423.028 125.227 423.126 124.629 423.126Z" fill="#1A1A1A"/>
<g opacity="0.01">
<rect x="31" y="406" width="24" height="24" fill="#F7F9FC"/>
</g>
<path fill-rule="evenodd" clip-rule="evenodd" d="M43.3072 410.5C43.1197 410.5 42.9329 410.507 42.7484 410.52C42.5257 410.537 42.2894 410.731 42.2407 411.068L42.1694 411.557C42.0472 412.401 41.4689 413.027 40.8262 413.372C40.7294 413.424 40.6349 413.479 40.5419 413.536C39.9209 413.922 39.0892 414.11 38.2979 413.794L37.8374 413.61C37.5209 413.484 37.2352 413.591 37.1084 413.776C36.8992 414.083 36.7117 414.406 36.5489 414.744C36.4514 414.945 36.5017 415.245 36.7687 415.456L37.1609 415.766C37.8284 416.292 38.0827 417.104 38.0594 417.834L38.0572 418L38.0594 418.166C38.0827 418.896 37.8284 419.708 37.1609 420.234L36.7687 420.544C36.5017 420.755 36.4514 421.055 36.5489 421.256C36.7117 421.594 36.8992 421.917 37.1084 422.224C37.2352 422.409 37.5209 422.516 37.8374 422.39L38.2979 422.206C39.0892 421.89 39.9209 422.078 40.5419 422.464C40.6349 422.521 40.7294 422.576 40.8262 422.628C41.4689 422.973 42.0472 423.599 42.1694 424.443L42.2407 424.932C42.2894 425.269 42.5257 425.463 42.7484 425.48C42.9329 425.493 43.1197 425.5 43.3072 425.5C43.4947 425.5 43.6814 425.493 43.8659 425.48C44.0894 425.463 44.3249 425.269 44.3737 424.932L44.4449 424.443C44.5672 423.599 45.1454 422.973 45.7882 422.628C45.8849 422.576 45.9794 422.521 46.0732 422.464C46.6934 422.078 47.5252 421.89 48.3164 422.206L48.7769 422.39C49.0934 422.516 49.3792 422.409 49.5059 422.224C49.7152 421.917 49.9027 421.593 50.0654 421.256C50.1629 421.055 50.1127 420.755 49.8457 420.544L49.4534 420.234C48.7859 419.708 48.5317 418.896 48.5549 418.166L48.5572 418L48.5549 417.834C48.5317 417.104 48.7859 416.292 49.4534 415.766L49.8457 415.456C50.1127 415.245 50.1629 414.945 50.0654 414.744C49.9027 414.407 49.7152 414.083 49.5059 413.776C49.3792 413.591 49.0934 413.484 48.7769 413.61L48.3164 413.794C47.5252 414.11 46.6934 413.922 46.0732 413.536C45.9794 413.479 45.8849 413.424 45.7882 413.372C45.1454 413.027 44.5672 412.401 44.4449 411.557L44.3737 411.068C44.3249 410.731 44.0894 410.537 43.8659 410.52C43.6814 410.507 43.4947 410.5 43.3072 410.5ZM42.6389 409.025C42.8594 409.008 43.0822 409 43.3072 409C43.5322 409 43.7549 409.008 43.9754 409.025C45.0142 409.101 45.7252 409.937 45.8579 410.852L45.9292 411.342C45.9667 411.6 46.1602 411.869 46.4977 412.05C46.6222 412.117 46.7444 412.188 46.8637 412.263C47.1892 412.464 47.5184 412.497 47.7607 412.401L48.2219 412.217C49.0792 411.875 50.1577 412.072 50.7442 412.93C50.9954 413.298 51.2212 413.687 51.4169 414.092C51.8692 415.029 51.4994 416.063 50.7742 416.634L50.3827 416.943C50.1779 417.104 50.0422 417.406 50.0542 417.788C50.0564 417.858 50.0572 417.929 50.0572 418C50.0572 418.071 50.0564 418.142 50.0542 418.212C50.0422 418.594 50.1779 418.896 50.3827 419.057L50.7742 419.366C51.4994 419.937 51.8692 420.971 51.4169 421.908C51.2212 422.313 50.9954 422.702 50.7442 423.07C50.1577 423.928 49.0792 424.125 48.2219 423.783L47.7607 423.599C47.5184 423.503 47.1892 423.536 46.8637 423.738C46.7444 423.812 46.6222 423.883 46.4977 423.95C46.1602 424.131 45.9667 424.4 45.9292 424.658L45.8579 425.147C45.7252 426.062 45.0142 426.899 43.9754 426.975C43.7549 426.992 43.5322 427 43.3072 427C43.0822 427 42.8594 426.992 42.6389 426.975C41.6009 426.899 40.8892 426.062 40.7564 425.147L40.6852 424.658C40.6477 424.4 40.4542 424.131 40.1167 423.95C39.9922 423.883 39.8699 423.812 39.7507 423.738C39.4252 423.536 39.0959 423.503 38.8537 423.599L38.3924 423.783C37.5352 424.125 36.4567 423.928 35.8702 423.07C35.6189 422.702 35.3932 422.313 35.1982 421.908C34.7452 420.971 35.1149 419.937 35.8402 419.366L36.2317 419.057C36.4364 418.896 36.5722 418.594 36.5602 418.212C36.5579 418.142 36.5572 418.071 36.5572 418C36.5572 417.929 36.5579 417.858 36.5602 417.788C36.5722 417.406 36.4364 417.104 36.2317 416.943L35.8402 416.634C35.1149 416.063 34.7452 415.029 35.1982 414.092C35.3932 413.687 35.6189 413.298 35.8702 412.93C36.4567 412.072 37.5352 411.875 38.3924 412.217L38.8537 412.401C39.0959 412.497 39.4252 412.464 39.7507 412.263C39.8699 412.188 39.9922 412.117 40.1167 412.05C40.4542 411.869 40.6477 411.6 40.6852 411.342L40.7564 410.852C40.8892 409.937 41.6009 409.101 42.6389 409.025ZM43.3072 415.75C42.0644 415.75 41.0572 416.757 41.0572 418C41.0572 419.243 42.0644 420.25 43.3072 420.25C44.5499 420.25 45.5572 419.243 45.5572 418C45.5572 416.757 44.5499 415.75 43.3072 415.75ZM39.5572 418C39.5572 415.929 41.2357 414.25 43.3072 414.25C45.3779 414.25 47.0572 415.929 47.0572 418C47.0572 420.071 45.3779 421.75 43.3072 421.75C41.2357 421.75 39.5572 420.071 39.5572 418Z" fill="black"/>
<rect x="15" y="302" width="345" height="64" rx="15" fill="#F3F4F5"/>
<g opacity="0.01">
<rect x="320" y="322" width="24" height="24" fill="#F7F9FC"/>
</g>
<path d="M329.22 338.22C328.927 338.513 328.927 338.987 329.22 339.28C329.513 339.573 329.987 339.573 330.28 339.28L335.28 334.28C335.573 333.987 335.573 333.513 335.28 333.22L330.28 328.22C329.987 327.927 329.513 327.927 329.22 328.22C328.927 328.513 328.927 328.987 329.22 329.28L333.689 333.75L329.22 338.22Z" fill="black"/>
<path d="M82.298 329.27V339H80.702V332.336L77.734 339H76.628L73.646 332.336V339H72.05V329.27H73.772L77.188 336.9L80.59 329.27H82.298ZM91.3397 331.286L86.6077 342.626H84.9557L86.5237 338.874L83.4857 331.286H85.2637L87.4337 337.166L89.6877 331.286H91.3397ZM97.7769 329.27V339H96.1809V329.27H97.7769ZM103.764 331.16C104.371 331.16 104.912 331.286 105.388 331.538C105.874 331.79 106.252 332.163 106.522 332.658C106.793 333.153 106.928 333.75 106.928 334.45V339H105.346V334.688C105.346 333.997 105.174 333.47 104.828 333.106C104.483 332.733 104.012 332.546 103.414 332.546C102.817 332.546 102.341 332.733 101.986 333.106C101.641 333.47 101.468 333.997 101.468 334.688V339H99.8723V331.286H101.468V332.168C101.73 331.851 102.061 331.603 102.462 331.426C102.873 331.249 103.307 331.16 103.764 331.16ZM112.198 332.588H110.77V339H109.16V332.588H108.25V331.286H109.16V330.74C109.16 329.853 109.393 329.209 109.86 328.808C110.336 328.397 111.078 328.192 112.086 328.192V329.522C111.601 329.522 111.26 329.615 111.064 329.802C110.868 329.979 110.77 330.292 110.77 330.74V331.286H112.198V332.588ZM116.959 339.126C116.231 339.126 115.573 338.963 114.985 338.636C114.397 338.3 113.935 337.833 113.599 337.236C113.263 336.629 113.095 335.929 113.095 335.136C113.095 334.352 113.267 333.657 113.613 333.05C113.958 332.443 114.429 331.977 115.027 331.65C115.624 331.323 116.291 331.16 117.029 331.16C117.766 331.16 118.433 331.323 119.031 331.65C119.628 331.977 120.099 332.443 120.445 333.05C120.79 333.657 120.963 334.352 120.963 335.136C120.963 335.92 120.785 336.615 120.431 337.222C120.076 337.829 119.591 338.3 118.975 338.636C118.368 338.963 117.696 339.126 116.959 339.126ZM116.959 337.74C117.369 337.74 117.752 337.642 118.107 337.446C118.471 337.25 118.765 336.956 118.989 336.564C119.213 336.172 119.325 335.696 119.325 335.136C119.325 334.576 119.217 334.105 119.003 333.722C118.788 333.33 118.503 333.036 118.149 332.84C117.794 332.644 117.411 332.546 117.001 332.546C116.59 332.546 116.207 332.644 115.853 332.84C115.507 333.036 115.232 333.33 115.027 333.722C114.821 334.105 114.719 334.576 114.719 335.136C114.719 335.967 114.929 336.611 115.349 337.068C115.778 337.516 116.315 337.74 116.959 337.74Z" fill="#1A1A1A"/>
<rect opacity="0.01" x="33" y="322" width="24" height="24" fill="white"/>
<path d="M37 342C37 332.4 53 332.4 53 342" stroke="black" stroke-width="1.5" stroke-linecap="round"/>
<circle cx="45.0365" cy="329.6" r="3.6" stroke="black" stroke-width="1.5"/>
<rect width="375" height="262" fill="#F3F4F5"/>
<path d="M112.293 221.848V230.088C112.293 231.005 112.011 231.741 111.445 232.296C110.88 232.84 110.133 233.112 109.205 233.112C108.267 233.112 107.515 232.835 106.949 232.28C106.384 231.715 106.101 230.947 106.101 229.976H107.557C107.568 230.52 107.707 230.963 107.973 231.304C108.251 231.645 108.661 231.816 109.205 231.816C109.749 231.816 110.155 231.656 110.421 231.336C110.688 231.005 110.821 230.589 110.821 230.088V221.848H112.293ZM118.986 233.144C118.164 233.144 117.418 232.957 116.746 232.584C116.084 232.211 115.562 231.683 115.178 231C114.804 230.307 114.618 229.507 114.618 228.6C114.618 227.704 114.81 226.915 115.194 226.232C115.588 225.539 116.122 225.011 116.794 224.648C117.466 224.275 118.218 224.088 119.05 224.088C119.882 224.088 120.634 224.275 121.306 224.648C121.978 225.011 122.506 225.533 122.89 226.216C123.284 226.899 123.482 227.693 123.482 228.6C123.482 229.507 123.279 230.307 122.874 231C122.479 231.683 121.94 232.211 121.258 232.584C120.575 232.957 119.818 233.144 118.986 233.144ZM118.986 231.864C119.508 231.864 119.999 231.741 120.458 231.496C120.916 231.251 121.284 230.883 121.562 230.392C121.85 229.901 121.994 229.304 121.994 228.6C121.994 227.896 121.855 227.299 121.578 226.808C121.3 226.317 120.938 225.955 120.49 225.72C120.042 225.475 119.556 225.352 119.034 225.352C118.5 225.352 118.01 225.475 117.562 225.72C117.124 225.955 116.772 226.317 116.506 226.808C116.239 227.299 116.106 227.896 116.106 228.6C116.106 229.315 116.234 229.917 116.49 230.408C116.756 230.899 117.108 231.267 117.546 231.512C117.983 231.747 118.463 231.864 118.986 231.864ZM129.748 224.072C130.409 224.072 131.007 224.216 131.54 224.504C132.073 224.781 132.489 225.203 132.788 225.768C133.097 226.333 133.252 227.021 133.252 227.832V233H131.812V228.04C131.812 227.165 131.593 226.499 131.156 226.04C130.719 225.571 130.121 225.336 129.364 225.336C128.596 225.336 127.983 225.576 127.524 226.056C127.076 226.536 126.852 227.235 126.852 228.152V233H125.396V221.16H126.852V225.48C127.14 225.032 127.535 224.685 128.036 224.44C128.548 224.195 129.119 224.072 129.748 224.072ZM139.902 224.072C140.969 224.072 141.833 224.397 142.494 225.048C143.156 225.688 143.486 226.616 143.486 227.832V233H142.046V228.04C142.046 227.165 141.828 226.499 141.39 226.04C140.953 225.571 140.356 225.336 139.598 225.336C138.83 225.336 138.217 225.576 137.758 226.056C137.31 226.536 137.086 227.235 137.086 228.152V233H135.63V224.232H137.086V225.48C137.374 225.032 137.764 224.685 138.254 224.44C138.756 224.195 139.305 224.072 139.902 224.072ZM151.586 231.816H155.49V233H150.13V221.848H151.586V231.816ZM158.493 221.16V233H157.037V221.16H158.493ZM164.798 233.144C163.977 233.144 163.23 232.957 162.558 232.584C161.897 232.211 161.374 231.683 160.99 231C160.617 230.307 160.43 229.507 160.43 228.6C160.43 227.704 160.622 226.915 161.006 226.232C161.401 225.539 161.934 225.011 162.606 224.648C163.278 224.275 164.03 224.088 164.862 224.088C165.694 224.088 166.446 224.275 167.118 224.648C167.79 225.011 168.318 225.533 168.702 226.216C169.097 226.899 169.294 227.693 169.294 228.6C169.294 229.507 169.092 230.307 168.686 231C168.292 231.683 167.753 232.211 167.07 232.584C166.388 232.957 165.63 233.144 164.798 233.144ZM164.798 231.864C165.321 231.864 165.812 231.741 166.27 231.496C166.729 231.251 167.097 230.883 167.374 230.392C167.662 229.901 167.806 229.304 167.806 228.6C167.806 227.896 167.668 227.299 167.39 226.808C167.113 226.317 166.75 225.955 166.302 225.72C165.854 225.475 165.369 225.352 164.846 225.352C164.313 225.352 163.822 225.475 163.374 225.72C162.937 225.955 162.585 226.317 162.318 226.808C162.052 227.299 161.918 227.896 161.918 228.6C161.918 229.315 162.046 229.917 162.302 230.408C162.569 230.899 162.921 231.267 163.358 231.512C163.796 231.747 164.276 231.864 164.798 231.864ZM178.761 224.232L173.481 237.128H171.977L173.705 232.904L170.169 224.232H171.785L174.537 231.336L177.257 224.232H178.761ZM179.68 228.584C179.68 227.688 179.862 226.904 180.224 226.232C180.587 225.549 181.083 225.021 181.712 224.648C182.352 224.275 183.067 224.088 183.856 224.088C184.539 224.088 185.174 224.248 185.76 224.568C186.347 224.877 186.795 225.288 187.104 225.8V221.16H188.576V233H187.104V231.352C186.816 231.875 186.39 232.307 185.824 232.648C185.259 232.979 184.598 233.144 183.84 233.144C183.062 233.144 182.352 232.952 181.712 232.568C181.083 232.184 180.587 231.645 180.224 230.952C179.862 230.259 179.68 229.469 179.68 228.584ZM187.104 228.6C187.104 227.939 186.971 227.363 186.704 226.872C186.438 226.381 186.075 226.008 185.616 225.752C185.168 225.485 184.672 225.352 184.128 225.352C183.584 225.352 183.088 225.48 182.64 225.736C182.192 225.992 181.835 226.365 181.568 226.856C181.302 227.347 181.168 227.923 181.168 228.584C181.168 229.256 181.302 229.843 181.568 230.344C181.835 230.835 182.192 231.213 182.64 231.48C183.088 231.736 183.584 231.864 184.128 231.864C184.672 231.864 185.168 231.736 185.616 231.48C186.075 231.213 186.438 230.835 186.704 230.344C186.971 229.843 187.104 229.261 187.104 228.6ZM194.758 227.416C194.758 226.328 195.004 225.352 195.494 224.488C195.985 223.613 196.652 222.931 197.494 222.44C198.348 221.949 199.292 221.704 200.326 221.704C201.542 221.704 202.604 221.997 203.51 222.584C204.417 223.171 205.078 224.003 205.494 225.08H203.75C203.441 224.408 202.993 223.891 202.406 223.528C201.83 223.165 201.137 222.984 200.326 222.984C199.548 222.984 198.849 223.165 198.23 223.528C197.612 223.891 197.126 224.408 196.774 225.08C196.422 225.741 196.246 226.52 196.246 227.416C196.246 228.301 196.422 229.08 196.774 229.752C197.126 230.413 197.612 230.925 198.23 231.288C198.849 231.651 199.548 231.832 200.326 231.832C201.137 231.832 201.83 231.656 202.406 231.304C202.993 230.941 203.441 230.424 203.75 229.752H205.494C205.078 230.819 204.417 231.645 203.51 232.232C202.604 232.808 201.542 233.096 200.326 233.096C199.292 233.096 198.348 232.856 197.494 232.376C196.652 231.885 195.985 231.208 195.494 230.344C195.004 229.48 194.758 228.504 194.758 227.416ZM215.662 228.28C215.662 228.557 215.646 228.851 215.614 229.16H208.606C208.659 230.024 208.952 230.701 209.486 231.192C210.03 231.672 210.686 231.912 211.454 231.912C212.083 231.912 212.606 231.768 213.022 231.48C213.448 231.181 213.747 230.787 213.918 230.296H215.486C215.251 231.139 214.782 231.827 214.078 232.36C213.374 232.883 212.499 233.144 211.454 233.144C210.622 233.144 209.875 232.957 209.214 232.584C208.563 232.211 208.051 231.683 207.678 231C207.304 230.307 207.118 229.507 207.118 228.6C207.118 227.693 207.299 226.899 207.662 226.216C208.024 225.533 208.531 225.011 209.182 224.648C209.843 224.275 210.6 224.088 211.454 224.088C212.286 224.088 213.022 224.269 213.662 224.632C214.302 224.995 214.792 225.496 215.134 226.136C215.486 226.765 215.662 227.48 215.662 228.28ZM214.158 227.976C214.158 227.421 214.035 226.947 213.79 226.552C213.544 226.147 213.208 225.843 212.782 225.64C212.366 225.427 211.902 225.32 211.39 225.32C210.654 225.32 210.024 225.555 209.502 226.024C208.99 226.493 208.696 227.144 208.622 227.976H214.158ZM219.04 225.656C219.296 225.155 219.658 224.765 220.128 224.488C220.608 224.211 221.189 224.072 221.872 224.072V225.576H221.488C219.856 225.576 219.04 226.461 219.04 228.232V233H217.584V224.232H219.04V225.656ZM227.376 233.144C226.555 233.144 225.808 232.957 225.136 232.584C224.475 232.211 223.952 231.683 223.568 231C223.195 230.307 223.008 229.507 223.008 228.6C223.008 227.704 223.2 226.915 223.584 226.232C223.979 225.539 224.512 225.011 225.184 224.648C225.856 224.275 226.608 224.088 227.44 224.088C228.272 224.088 229.024 224.275 229.696 224.648C230.368 225.011 230.896 225.533 231.28 226.216C231.675 226.899 231.872 227.693 231.872 228.6C231.872 229.507 231.67 230.307 231.264 231C230.87 231.683 230.331 232.211 229.648 232.584C228.966 232.957 228.208 233.144 227.376 233.144ZM227.376 231.864C227.899 231.864 228.39 231.741 228.848 231.496C229.307 231.251 229.675 230.883 229.952 230.392C230.24 229.901 230.384 229.304 230.384 228.6C230.384 227.896 230.246 227.299 229.968 226.808C229.691 226.317 229.328 225.955 228.88 225.72C228.432 225.475 227.947 225.352 227.424 225.352C226.891 225.352 226.4 225.475 225.952 225.72C225.515 225.955 225.163 226.317 224.896 226.808C224.63 227.299 224.496 227.896 224.496 228.6C224.496 229.315 224.624 229.917 224.88 230.408C225.147 230.899 225.499 231.267 225.936 231.512C226.374 231.747 226.854 231.864 227.376 231.864ZM234.571 222.808C234.293 222.808 234.059 222.712 233.867 222.52C233.685 222.328 233.595 222.093 233.595 221.816C233.595 221.539 233.685 221.304 233.867 221.112C234.059 220.92 234.293 220.824 234.571 220.824C234.848 220.824 235.077 220.92 235.259 221.112C235.451 221.304 235.547 221.539 235.547 221.816C235.547 222.093 235.451 222.328 235.259 222.52C235.077 222.712 234.848 222.808 234.571 222.808ZM235.291 234.904C235.291 235.683 235.093 236.253 234.699 236.616C234.304 236.979 233.728 237.16 232.971 237.16H232.123V235.928H232.731C233.136 235.928 233.419 235.848 233.579 235.688C233.749 235.528 233.835 235.256 233.835 234.872V224.232H235.291V234.904ZM237.211 228.584C237.211 227.688 237.393 226.904 237.755 226.232C238.118 225.549 238.614 225.021 239.243 224.648C239.883 224.275 240.593 224.088 241.371 224.088C242.139 224.088 242.806 224.253 243.371 224.584C243.937 224.915 244.358 225.331 244.635 225.832V224.232H246.107V233H244.635V231.368C244.347 231.88 243.915 232.307 243.339 232.648C242.774 232.979 242.113 233.144 241.355 233.144C240.577 233.144 239.873 232.952 239.243 232.568C238.614 232.184 238.118 231.645 237.755 230.952C237.393 230.259 237.211 229.469 237.211 228.584ZM244.635 228.6C244.635 227.939 244.502 227.363 244.235 226.872C243.969 226.381 243.606 226.008 243.147 225.752C242.699 225.485 242.203 225.352 241.659 225.352C241.115 225.352 240.619 225.48 240.171 225.736C239.723 225.992 239.366 226.365 239.099 226.856C238.833 227.347 238.699 227.923 238.699 228.584C238.699 229.256 238.833 229.843 239.099 230.344C239.366 230.835 239.723 231.213 240.171 231.48C240.619 231.736 241.115 231.864 241.659 231.864C242.203 231.864 242.699 231.736 243.147 231.48C243.606 231.213 243.969 230.835 244.235 230.344C244.502 229.843 244.635 229.261 244.635 228.6ZM250.024 221.16V233H248.568V221.16H250.024ZM260.505 228.28C260.505 228.557 260.489 228.851 260.457 229.16H253.449C253.503 230.024 253.796 230.701 254.329 231.192C254.873 231.672 255.529 231.912 256.297 231.912C256.927 231.912 257.449 231.768 257.865 231.48C258.292 231.181 258.591 230.787 258.761 230.296H260.329C260.095 231.139 259.625 231.827 258.921 232.36C258.217 232.883 257.343 233.144 256.297 233.144C255.465 233.144 254.719 232.957 254.057 232.584C253.407 232.211 252.895 231.683 252.521 231C252.148 230.307 251.961 229.507 251.961 228.6C251.961 227.693 252.143 226.899 252.505 226.216C252.868 225.533 253.375 225.011 254.025 224.648C254.687 224.275 255.444 224.088 256.297 224.088C257.129 224.088 257.865 224.269 258.505 224.632C259.145 224.995 259.636 225.496 259.977 226.136C260.329 226.765 260.505 227.48 260.505 228.28ZM259.001 227.976C259.001 227.421 258.879 226.947 258.633 226.552C258.388 226.147 258.052 225.843 257.625 225.64C257.209 225.427 256.745 225.32 256.233 225.32C255.497 225.32 254.868 225.555 254.345 226.024C253.833 226.493 253.54 227.144 253.465 227.976H259.001ZM265.531 233.144C264.859 233.144 264.257 233.032 263.723 232.808C263.19 232.573 262.769 232.253 262.459 231.848C262.15 231.432 261.979 230.957 261.947 230.424H263.451C263.494 230.861 263.697 231.219 264.059 231.496C264.433 231.773 264.918 231.912 265.515 231.912C266.07 231.912 266.507 231.789 266.827 231.544C267.147 231.299 267.307 230.989 267.307 230.616C267.307 230.232 267.137 229.949 266.795 229.768C266.454 229.576 265.926 229.389 265.211 229.208C264.561 229.037 264.027 228.867 263.611 228.696C263.206 228.515 262.854 228.253 262.555 227.912C262.267 227.56 262.123 227.101 262.123 226.536C262.123 226.088 262.257 225.677 262.523 225.304C262.79 224.931 263.169 224.637 263.659 224.424C264.15 224.2 264.71 224.088 265.339 224.088C266.31 224.088 267.094 224.333 267.691 224.824C268.289 225.315 268.609 225.987 268.651 226.84H267.195C267.163 226.381 266.977 226.013 266.635 225.736C266.305 225.459 265.857 225.32 265.291 225.32C264.769 225.32 264.353 225.432 264.043 225.656C263.734 225.88 263.579 226.173 263.579 226.536C263.579 226.824 263.67 227.064 263.851 227.256C264.043 227.437 264.278 227.587 264.555 227.704C264.843 227.811 265.238 227.933 265.739 228.072C266.369 228.243 266.881 228.413 267.275 228.584C267.67 228.744 268.006 228.989 268.283 229.32C268.571 229.651 268.721 230.083 268.731 230.616C268.731 231.096 268.598 231.528 268.331 231.912C268.065 232.296 267.686 232.6 267.195 232.824C266.715 233.037 266.161 233.144 265.531 233.144Z" fill="#1A1A1A"/>
<g clip-path="url(#clip4_60_12485)">
<circle cx="188" cy="157" r="50" fill="white"/>
<path d="M186.382 143.12V163.72C186.382 166.013 185.675 167.853 184.262 169.24C182.848 170.6 180.982 171.28 178.662 171.28C176.315 171.28 174.435 170.587 173.022 169.2C171.608 167.787 170.902 165.867 170.902 163.44H174.542C174.568 164.8 174.915 165.907 175.582 166.76C176.275 167.613 177.302 168.04 178.662 168.04C180.022 168.04 181.035 167.64 181.702 166.84C182.368 166.013 182.702 164.973 182.702 163.72V143.12H186.382ZM197.193 168.04H206.953V171H193.553V143.12H197.193V168.04Z" fill="#1A1A1A"/>
</g>
<path d="M155.476 61.1V75H153.196V65.48L148.956 75H147.376L143.116 65.48V75H140.836V61.1H143.296L148.176 72L153.036 61.1H155.476ZM168.393 63.98L161.633 80.18H159.273L161.513 74.82L157.173 63.98H159.713L162.813 72.38L166.033 63.98H168.393ZM185.029 65.24C185.029 65.9467 184.862 66.6133 184.529 67.24C184.195 67.8667 183.662 68.38 182.929 68.78C182.195 69.1667 181.255 69.36 180.109 69.36H177.589V75H175.309V61.1H180.109C181.175 61.1 182.075 61.2867 182.809 61.66C183.555 62.02 184.109 62.5133 184.469 63.14C184.842 63.7667 185.029 64.4667 185.029 65.24ZM180.109 67.5C180.975 67.5 181.622 67.3067 182.049 66.92C182.475 66.52 182.689 65.96 182.689 65.24C182.689 63.72 181.829 62.96 180.109 62.96H177.589V67.5H180.109ZM189.483 65.58C189.816 65.02 190.256 64.5867 190.803 64.28C191.363 63.96 192.023 63.8 192.783 63.8V66.16H192.203C191.31 66.16 190.63 66.3867 190.163 66.84C189.71 67.2933 189.483 68.08 189.483 69.2V75H187.203V63.98H189.483V65.58ZM199.659 75.18C198.619 75.18 197.679 74.9467 196.839 74.48C195.999 74 195.339 73.3333 194.859 72.48C194.379 71.6133 194.139 70.6133 194.139 69.48C194.139 68.36 194.386 67.3667 194.879 66.5C195.372 65.6333 196.046 64.9667 196.899 64.5C197.752 64.0333 198.706 63.8 199.759 63.8C200.812 63.8 201.766 64.0333 202.619 64.5C203.472 64.9667 204.146 65.6333 204.639 66.5C205.132 67.3667 205.379 68.36 205.379 69.48C205.379 70.6 205.126 71.5933 204.619 72.46C204.112 73.3267 203.419 74 202.539 74.48C201.672 74.9467 200.712 75.18 199.659 75.18ZM199.659 73.2C200.246 73.2 200.792 73.06 201.299 72.78C201.819 72.5 202.239 72.08 202.559 71.52C202.879 70.96 203.039 70.28 203.039 69.48C203.039 68.68 202.886 68.0067 202.579 67.46C202.272 66.9 201.866 66.48 201.359 66.2C200.852 65.92 200.306 65.78 199.719 65.78C199.132 65.78 198.586 65.92 198.079 66.2C197.586 66.48 197.192 66.9 196.899 67.46C196.606 68.0067 196.459 68.68 196.459 69.48C196.459 70.6667 196.759 71.5867 197.359 72.24C197.972 72.88 198.739 73.2 199.659 73.2ZM212.253 65.84H210.213V75H207.913V65.84H206.613V63.98H207.913V63.2C207.913 61.9333 208.246 61.0133 208.913 60.44C209.593 59.8533 210.653 59.56 212.093 59.56V61.46C211.399 61.46 210.913 61.5933 210.633 61.86C210.353 62.1133 210.213 62.56 210.213 63.2V63.98H212.253V65.84ZM215.433 62.52C215.02 62.52 214.673 62.38 214.393 62.1C214.113 61.82 213.973 61.4733 213.973 61.06C213.973 60.6467 214.113 60.3 214.393 60.02C214.673 59.74 215.02 59.6 215.433 59.6C215.833 59.6 216.173 59.74 216.453 60.02C216.733 60.3 216.873 60.6467 216.873 61.06C216.873 61.4733 216.733 61.82 216.453 62.1C216.173 62.38 215.833 62.52 215.433 62.52ZM216.553 63.98V75H214.273V63.98H216.553ZM221.827 60.2V75H219.547V60.2H221.827ZM234.92 69.22C234.92 69.6333 234.894 70.0067 234.84 70.34H226.42C226.487 71.22 226.814 71.9267 227.4 72.46C227.987 72.9933 228.707 73.26 229.56 73.26C230.787 73.26 231.654 72.7467 232.16 71.72H234.62C234.287 72.7333 233.68 73.5667 232.8 74.22C231.934 74.86 230.854 75.18 229.56 75.18C228.507 75.18 227.56 74.9467 226.72 74.48C225.894 74 225.24 73.3333 224.76 72.48C224.294 71.6133 224.06 70.6133 224.06 69.48C224.06 68.3467 224.287 67.3533 224.74 66.5C225.207 65.6333 225.854 64.9667 226.68 64.5C227.52 64.0333 228.48 63.8 229.56 63.8C230.6 63.8 231.527 64.0267 232.34 64.48C233.154 64.9333 233.787 65.5733 234.24 66.4C234.694 67.2133 234.92 68.1533 234.92 69.22ZM232.54 68.5C232.527 67.66 232.227 66.9867 231.64 66.48C231.054 65.9733 230.327 65.72 229.46 65.72C228.674 65.72 228 65.9733 227.44 66.48C226.88 66.9733 226.547 67.6467 226.44 68.5H232.54Z" fill="#1A1A1A"/>
<rect opacity="0.01" width="375" height="40" fill="white"/>
<path fill-rule="evenodd" clip-rule="evenodd" d="M329.844 14H346.51C347.217 14 347.895 14.281 348.396 14.7811C348.896 15.2813 349.177 15.9597 349.177 16.667V22.667V22.667C349.177 23.3743 348.896 24.0527 348.396 24.5529C347.895 25.053 347.217 25.334 346.51 25.334H329.844C328.371 25.334 327.177 24.1399 327.177 22.667V16.667V16.667C327.177 15.1941 328.371 14 329.844 14Z" stroke="black" stroke-opacity="0.35"/>
<path d="M350.177 18V22C350.981 21.6612 351.505 20.8731 351.505 20C351.505 19.1269 350.981 18.3388 350.177 18" fill="black" fill-opacity="0.4"/>
<path d="M330.51 16H345.843C346.197 15.9997 346.536 16.1402 346.786 16.3904C347.037 16.6407 347.177 16.9801 347.177 17.334V22.001C347.177 22.7372 346.58 23.334 345.844 23.334H330.51C330.156 23.334 329.817 23.1934 329.567 22.9432C329.317 22.693 329.176 22.3537 329.177 22V17.333C329.177 16.5968 329.774 16 330.51 16Z" fill="black"/>
<path fill-rule="evenodd" clip-rule="evenodd" d="M314.507 16.2771C316.723 16.277 318.854 17.1283 320.46 18.6551C320.58 18.7736 320.773 18.7736 320.893 18.6551L322.049 17.4881C322.109 17.4271 322.143 17.3447 322.142 17.2591C322.14 17.1731 322.104 17.0913 322.042 17.0321C317.826 12.9939 311.177 12.9939 306.962 17.0321C306.9 17.0913 306.864 17.1731 306.862 17.2591C306.861 17.3447 306.895 17.4271 306.955 17.4881L308.111 18.6551C308.231 18.7736 308.424 18.7736 308.544 18.6551C310.15 17.1282 312.282 16.2769 314.498 16.2771H314.507ZM314.507 20.0771C315.724 20.0771 316.898 20.5297 317.801 21.3471C317.923 21.4629 318.115 21.4602 318.234 21.3411L319.389 20.1741C319.45 20.113 319.484 20.0302 319.483 19.9441C319.482 19.8574 319.446 19.7748 319.383 19.7151C316.635 17.1587 312.379 17.1587 309.631 19.7151C309.568 19.7748 309.532 19.8574 309.531 19.9441C309.53 20.0302 309.564 20.113 309.625 20.1741L310.779 21.3411C310.898 21.4602 311.09 21.4629 311.212 21.3471C312.114 20.5302 313.287 20.0776 314.504 20.0771H314.507ZM316.82 22.6301C316.822 22.7167 316.788 22.8003 316.726 22.8611L314.739 24.8771C314.68 24.9365 314.6 24.97 314.517 24.9701C314.433 24.9701 314.353 24.9366 314.295 24.8771L312.295 22.8611C312.233 22.8003 312.199 22.7167 312.201 22.6301C312.202 22.5442 312.238 22.4625 312.301 22.4041C313.576 21.3255 315.444 21.3255 316.72 22.4041C316.783 22.4625 316.819 22.5442 316.82 22.6301Z" fill="black"/>
<path fill-rule="evenodd" clip-rule="evenodd" d="M300.844 14H299.844C299.291 14 298.844 14.4477 298.844 15V23.667C298.844 24.2193 299.291 24.667 299.844 24.667H300.844C301.396 24.667 301.844 24.2193 301.844 23.667V15C301.844 14.4477 301.396 14 300.844 14ZM295.177 16.333H296.177C296.729 16.333 297.177 16.7807 297.177 17.333V23.666C297.177 24.2183 296.729 24.666 296.177 24.666H295.177C294.624 24.666 294.177 24.2183 294.177 23.666V17.333C294.177 16.7807 294.624 16.333 295.177 16.333ZM291.511 18.666H290.511H290.51C289.958 18.6666 289.511 19.1141 289.511 19.666V23.666C289.511 24.2183 289.958 24.666 290.511 24.666H291.511C292.063 24.666 292.511 24.2183 292.511 23.666V19.666C292.511 19.1137 292.063 18.666 291.511 18.666ZM286.844 20.666H285.844C285.291 20.666 284.844 21.1137 284.844 21.666V23.666C284.844 24.2183 285.291 24.666 285.844 24.666H286.844C287.396 24.666 287.844 24.2183 287.844 23.666V21.666C287.844 21.1137 287.396 20.666 286.844 20.666Z" fill="black"/>
<path fill-rule="evenodd" clip-rule="evenodd" d="M27.61 25.349C30.119 25.349 31.61 23.387 31.61 20.065C31.6467 18.9832 31.4057 17.9101 30.91 16.948C30.3028 15.719 29.0341 14.9576 27.664 15C26.7082 14.9345 25.7686 15.2718 25.0726 15.9302C24.3766 16.5886 23.9877 17.508 24 18.466C23.9658 19.3402 24.2958 20.1895 24.9112 20.8113C25.5266 21.4332 26.3724 21.772 27.247 21.747C28.3152 21.7986 29.315 21.2211 29.804 20.27H29.92C29.92 22.526 29.066 23.87 27.62 23.87C26.8344 23.9106 26.1219 23.4119 25.891 22.66H24.137C24.4532 24.3024 25.9406 25.4541 27.61 25.349ZM27.672 20.349C27.151 20.3709 26.6447 20.1738 26.2757 19.8054C25.9067 19.437 25.7088 18.9309 25.73 18.41C25.7374 17.333 26.6165 16.466 27.6935 16.4735C28.7704 16.4809 29.6374 17.36 29.63 18.437C29.6399 18.9549 29.435 19.4539 29.0638 19.8154C28.6927 20.1769 28.1885 20.3686 27.671 20.345L27.672 20.349ZM35.7759 22.9787C35.7811 23.5734 35.3046 24.0603 34.71 24.068L34.709 24.064C34.4184 24.0766 34.1356 23.9678 33.9284 23.7638C33.7211 23.5597 33.6079 23.2787 33.616 22.988C33.616 22.3933 34.0967 21.9106 34.6914 21.9081C35.286 21.9055 35.7708 22.3841 35.7759 22.9787ZM34.71 18.941C35.0006 18.9553 35.284 18.8476 35.4918 18.6439C35.6995 18.4401 35.8127 18.1588 35.804 17.868C35.7861 17.2769 35.3018 16.807 34.7105 16.807C34.1191 16.807 33.6348 17.2769 33.617 17.868C33.6106 18.1574 33.7244 18.4366 33.9313 18.6391C34.1382 18.8417 34.4197 18.9495 34.709 18.937L34.71 18.941ZM44.31 25.11H42.622V23.271H37.803V21.699C38.692 20.065 40.08 17.871 41.823 15.246H44.311V21.781H45.643V23.271H44.31V25.11ZM39.437 21.719C40.585 19.696 41.611 18.075 42.554 16.681H42.654V21.822H39.437V21.719ZM51.452 25.11H49.688L49.687 17.027H49.571L47.117 18.75V17.05L49.695 15.246H51.452V25.11Z" fill="black"/>
</g>
<defs>
<filter id="filter0_d_60_12485" x="-10" y="690" width="395" height="122" filterUnits="userSpaceOnUse" color-interpolation-filters="sRGB">
<feFlood flood-opacity="0" result="BackgroundImageFix"/>
<feColorMatrix in="SourceAlpha" type="matrix" values="0 0 0 0 0 0 0 0 0 0 0 0 0 0 0 0 0 0 127 0" result="hardAlpha"/>
<feOffset dy="-10"/>
<feGaussianBlur stdDeviation="5"/>
<feColorMatrix type="matrix" values="0 0 0 0 0 0 0 0 0 0 0 0 0 0 0 0 0 0 0.03 0"/>
<feBlend mode="normal" in2="BackgroundImageFix" result="effect1_dropShadow_60_12485"/>
<feBlend mode="normal" in="SourceGraphic" in2="effect1_dropShadow_60_12485" result="shape"/>
</filter>
<clipPath id="clip0_60_12485">
<rect width="375" height="812" fill="white"/>
</clipPath>
<clipPath id="clip1_60_12485">
<rect width="82" height="70" fill="white" transform="translate(271 726)"/>
</clipPath>
<clipPath id="clip2_60_12485">
<rect width="82" height="70" fill="white" transform="translate(147 726)"/>
</clipPath>
<clipPath id="clip3_60_12485">
<rect width="82" height="70" fill="white" transform="translate(22 726)"/>
</clipPath>
<clipPath id="clip4_60_12485">
<rect width="100" height="100" fill="white" transform="translate(138 107)"/>
</clipPath>
</defs>
</svg>
